<mxfile host="app.diagrams.net" modified="2023-01-09T08:01:56.792Z" agent="5.0 (Windows NT 10.0; Win64; x64) AppleWebKit/537.36 (KHTML, like Gecko) Chrome/108.0.0.0 Safari/537.36" etag="oWvG2NKpzucYvovwt3zv" version="20.4.0" type="github" pages="2">
  <diagram id="C5RBs43oDa-KdzZeNtuy" name="Page-1">
    <mxGraphModel dx="1239" dy="593" grid="1" gridSize="10" guides="1" tooltips="1" connect="1" arrows="1" fold="1" page="1" pageScale="1" pageWidth="827" pageHeight="1169" math="0" shadow="0">
      <root>
        <mxCell id="WIyWlLk6GJQsqaUBKTNV-0" />
        <mxCell id="WIyWlLk6GJQsqaUBKTNV-1" parent="WIyWlLk6GJQsqaUBKTNV-0" />
        <mxCell id="5p0RSowyXVtUORaD7XSm-12" value="当前" style="group;fillColor=#f5f5f5;strokeColor=#666666;fontColor=#333333;" vertex="1" connectable="0" parent="WIyWlLk6GJQsqaUBKTNV-1">
          <mxGeometry x="40" y="40" width="460" height="550" as="geometry" />
        </mxCell>
        <mxCell id="WIyWlLk6GJQsqaUBKTNV-3" value="获取最新的 原始数据 a" style="rounded=1;whiteSpace=wrap;html=1;fontSize=12;glass=0;strokeWidth=1;shadow=0;fillColor=#d5e8d4;gradientColor=#97d077;strokeColor=#82b366;" parent="5p0RSowyXVtUORaD7XSm-12" vertex="1">
          <mxGeometry x="37.55102040816327" y="103.62173038229376" width="133.68163265306123" height="41.4486921529175" as="geometry" />
        </mxCell>
        <mxCell id="-s9xfdcpvvmD0fLocedz-0" value="limit卡控最新值 b&lt;br&gt;(小于等于a)" style="rounded=1;whiteSpace=wrap;html=1;fontSize=12;glass=0;strokeWidth=1;shadow=0;fillColor=#fff2cc;gradientColor=#ffd966;strokeColor=#d6b656;" vertex="1" parent="5p0RSowyXVtUORaD7XSm-12">
          <mxGeometry x="42.692621664050236" y="190.00372233400404" width="123.39843014128728" height="41.4486921529175" as="geometry" />
        </mxCell>
        <mxCell id="-s9xfdcpvvmD0fLocedz-1" value="" style="edgeStyle=orthogonalEdgeStyle;rounded=0;orthogonalLoop=1;jettySize=auto;html=1;" edge="1" parent="5p0RSowyXVtUORaD7XSm-12" source="WIyWlLk6GJQsqaUBKTNV-3" target="-s9xfdcpvvmD0fLocedz-0">
          <mxGeometry relative="1" as="geometry" />
        </mxCell>
        <mxCell id="-s9xfdcpvvmD0fLocedz-4" value="b == a ?" style="rhombus;whiteSpace=wrap;html=1;rounded=1;glass=0;strokeWidth=1;shadow=0;" vertex="1" parent="5p0RSowyXVtUORaD7XSm-12">
          <mxGeometry x="63.259026687598116" y="279.9954527162978" width="82.26562009419152" height="72.53521126760563" as="geometry" />
        </mxCell>
        <mxCell id="-s9xfdcpvvmD0fLocedz-5" value="" style="edgeStyle=orthogonalEdgeStyle;rounded=0;orthogonalLoop=1;jettySize=auto;html=1;" edge="1" parent="5p0RSowyXVtUORaD7XSm-12" source="-s9xfdcpvvmD0fLocedz-0" target="-s9xfdcpvvmD0fLocedz-4">
          <mxGeometry relative="1" as="geometry" />
        </mxCell>
        <mxCell id="-s9xfdcpvvmD0fLocedz-6" value="a + b" style="whiteSpace=wrap;html=1;rounded=1;glass=0;strokeWidth=1;shadow=0;" vertex="1" parent="5p0RSowyXVtUORaD7XSm-12">
          <mxGeometry x="42.692621664050236" y="429.99587525150906" width="123.39843014128728" height="62.17303822937626" as="geometry" />
        </mxCell>
        <object label="" dfh="" id="K96Z4wW0k-iZXg-RB-74-1">
          <mxCell style="edgeStyle=orthogonalEdgeStyle;rounded=0;orthogonalLoop=1;jettySize=auto;html=1;exitX=0.5;exitY=1;exitDx=0;exitDy=0;entryX=0.5;entryY=0;entryDx=0;entryDy=0;" edge="1" parent="5p0RSowyXVtUORaD7XSm-12" source="-s9xfdcpvvmD0fLocedz-4" target="-s9xfdcpvvmD0fLocedz-6">
            <mxGeometry relative="1" as="geometry">
              <Array as="points">
                <mxPoint x="104.20408163265307" y="420" />
                <mxPoint x="104.20408163265307" y="420" />
              </Array>
            </mxGeometry>
          </mxCell>
        </object>
        <mxCell id="5p0RSowyXVtUORaD7XSm-0" value="YES&lt;br&gt;(b == a)" style="edgeLabel;html=1;align=center;verticalAlign=middle;resizable=0;points=[];" vertex="1" connectable="0" parent="K96Z4wW0k-iZXg-RB-74-1">
          <mxGeometry x="-0.1684" y="-2" relative="1" as="geometry">
            <mxPoint x="32" y="3" as="offset" />
          </mxGeometry>
        </mxCell>
        <mxCell id="5p0RSowyXVtUORaD7XSm-2" value="获取b对应的原始数据 c" style="whiteSpace=wrap;html=1;rounded=1;glass=0;strokeWidth=1;shadow=0;fillColor=#d5e8d4;gradientColor=#97d077;strokeColor=#82b366;" vertex="1" parent="5p0RSowyXVtUORaD7XSm-12">
          <mxGeometry x="202.57620094191523" y="285.1765392354125" width="139.8515541601256" height="62.17303822937626" as="geometry" />
        </mxCell>
        <mxCell id="5p0RSowyXVtUORaD7XSm-3" value="" style="edgeStyle=orthogonalEdgeStyle;rounded=0;orthogonalLoop=1;jettySize=auto;html=1;" edge="1" parent="5p0RSowyXVtUORaD7XSm-12" source="-s9xfdcpvvmD0fLocedz-4" target="5p0RSowyXVtUORaD7XSm-2">
          <mxGeometry relative="1" as="geometry" />
        </mxCell>
        <mxCell id="5p0RSowyXVtUORaD7XSm-4" value="NO&lt;br&gt;（b &amp;lt; a）" style="text;html=1;align=center;verticalAlign=middle;resizable=0;points=[];autosize=1;strokeColor=none;fillColor=none;" vertex="1" parent="5p0RSowyXVtUORaD7XSm-12">
          <mxGeometry x="136.85974882260598" y="279.9954527162978" width="70" height="40" as="geometry" />
        </mxCell>
        <mxCell id="5p0RSowyXVtUORaD7XSm-6" value="b +c" style="whiteSpace=wrap;html=1;rounded=1;glass=0;strokeWidth=1;shadow=0;" vertex="1" parent="5p0RSowyXVtUORaD7XSm-12">
          <mxGeometry x="210.8027629513344" y="429.9969617706238" width="123.39843014128728" height="62.17303822937626" as="geometry" />
        </mxCell>
        <mxCell id="5p0RSowyXVtUORaD7XSm-7" value="" style="edgeStyle=orthogonalEdgeStyle;rounded=0;orthogonalLoop=1;jettySize=auto;html=1;" edge="1" parent="5p0RSowyXVtUORaD7XSm-12" source="5p0RSowyXVtUORaD7XSm-2" target="5p0RSowyXVtUORaD7XSm-6">
          <mxGeometry relative="1" as="geometry" />
        </mxCell>
        <mxCell id="5p0RSowyXVtUORaD7XSm-18" style="edgeStyle=orthogonalEdgeStyle;rounded=0;orthogonalLoop=1;jettySize=auto;html=1;entryX=0.5;entryY=0;entryDx=0;entryDy=0;" edge="1" parent="5p0RSowyXVtUORaD7XSm-12" source="5p0RSowyXVtUORaD7XSm-8" target="WIyWlLk6GJQsqaUBKTNV-3">
          <mxGeometry relative="1" as="geometry" />
        </mxCell>
        <mxCell id="5p0RSowyXVtUORaD7XSm-8" value="" style="shape=umlActor;verticalLabelPosition=bottom;verticalAlign=top;html=1;outlineConnect=0;" vertex="1" parent="5p0RSowyXVtUORaD7XSm-12">
          <mxGeometry x="81.25463108320251" y="10" width="46.274411302982735" height="51.81086519114688" as="geometry" />
        </mxCell>
        <mxCell id="5p0RSowyXVtUORaD7XSm-27" value="方案一" style="group;fillColor=#f5f5f5;strokeColor=#666666;fontColor=#333333;container=0;" vertex="1" connectable="0" parent="WIyWlLk6GJQsqaUBKTNV-1">
          <mxGeometry x="620" y="50" width="870" height="880" as="geometry" />
        </mxCell>
        <mxCell id="5p0RSowyXVtUORaD7XSm-28" value="获取最新的 原始数据 a" style="rounded=1;whiteSpace=wrap;html=1;fontSize=12;glass=0;strokeWidth=1;shadow=0;fillColor=#d5e8d4;gradientColor=#97d077;strokeColor=#82b366;" vertex="1" parent="WIyWlLk6GJQsqaUBKTNV-1">
          <mxGeometry x="691.0204081632653" y="200.7225169197" width="252.83265306122453" height="60.289006767880004" as="geometry" />
        </mxCell>
        <mxCell id="5p0RSowyXVtUORaD7XSm-29" value="limit卡控最新值 b&lt;br&gt;(小于等于a)" style="rounded=1;whiteSpace=wrap;html=1;fontSize=12;glass=0;strokeWidth=1;shadow=0;fillColor=#fff2cc;gradientColor=#ffd966;strokeColor=#d6b656;" vertex="1" parent="WIyWlLk6GJQsqaUBKTNV-1">
          <mxGeometry x="700.7447409733124" y="326.36905066764217" width="233.38398744113033" height="60.289006767880004" as="geometry" />
        </mxCell>
        <mxCell id="5p0RSowyXVtUORaD7XSm-30" value="" style="edgeStyle=orthogonalEdgeStyle;rounded=0;orthogonalLoop=1;jettySize=auto;html=1;" edge="1" parent="WIyWlLk6GJQsqaUBKTNV-1" source="5p0RSowyXVtUORaD7XSm-28" target="5p0RSowyXVtUORaD7XSm-29">
          <mxGeometry relative="1" as="geometry" />
        </mxCell>
        <mxCell id="5p0RSowyXVtUORaD7XSm-31" value="b == a ?" style="rhombus;whiteSpace=wrap;html=1;rounded=1;glass=0;strokeWidth=1;shadow=0;" vertex="1" parent="WIyWlLk6GJQsqaUBKTNV-1">
          <mxGeometry x="739.6420722135008" y="457.26611304188765" width="155.58932496075354" height="105.50576184379001" as="geometry" />
        </mxCell>
        <mxCell id="5p0RSowyXVtUORaD7XSm-32" value="" style="edgeStyle=orthogonalEdgeStyle;rounded=0;orthogonalLoop=1;jettySize=auto;html=1;" edge="1" parent="WIyWlLk6GJQsqaUBKTNV-1" source="5p0RSowyXVtUORaD7XSm-29" target="5p0RSowyXVtUORaD7XSm-31">
          <mxGeometry relative="1" as="geometry" />
        </mxCell>
        <mxCell id="5p0RSowyXVtUORaD7XSm-33" value="a + b" style="whiteSpace=wrap;html=1;rounded=1;glass=0;strokeWidth=1;shadow=0;" vertex="1" parent="WIyWlLk6GJQsqaUBKTNV-1">
          <mxGeometry x="700.7447409733124" y="675.4485458203768" width="233.38398744113033" height="90.43351015182002" as="geometry" />
        </mxCell>
        <object label="" dfh="" id="5p0RSowyXVtUORaD7XSm-34">
          <mxCell style="edgeStyle=orthogonalEdgeStyle;rounded=0;orthogonalLoop=1;jettySize=auto;html=1;exitX=0.5;exitY=1;exitDx=0;exitDy=0;entryX=0.5;entryY=0;entryDx=0;entryDy=0;" edge="1" parent="WIyWlLk6GJQsqaUBKTNV-1" source="5p0RSowyXVtUORaD7XSm-31" target="5p0RSowyXVtUORaD7XSm-33">
            <mxGeometry relative="1" as="geometry">
              <Array as="points">
                <mxPoint x="817.0816326530613" y="660.9090909090908" />
                <mxPoint x="817.0816326530613" y="660.9090909090908" />
              </Array>
            </mxGeometry>
          </mxCell>
        </object>
        <mxCell id="5p0RSowyXVtUORaD7XSm-35" value="YES&lt;br&gt;(b == a)" style="edgeLabel;html=1;align=center;verticalAlign=middle;resizable=0;points=[];" vertex="1" connectable="0" parent="5p0RSowyXVtUORaD7XSm-34">
          <mxGeometry x="-0.1684" y="-2" relative="1" as="geometry">
            <mxPoint x="32" y="3" as="offset" />
          </mxGeometry>
        </mxCell>
        <mxCell id="5p0RSowyXVtUORaD7XSm-36" value="获取b对应的原始数据 c" style="whiteSpace=wrap;html=1;rounded=1;glass=0;strokeWidth=1;shadow=0;fillColor=#d5e8d4;gradientColor=#97d077;strokeColor=#82b366;" vertex="1" parent="WIyWlLk6GJQsqaUBKTNV-1">
          <mxGeometry x="1278.77" y="464.80701754385956" width="189.08" height="90.42807017543859" as="geometry" />
        </mxCell>
        <mxCell id="5p0RSowyXVtUORaD7XSm-38" value="NO&lt;br&gt;（b &amp;lt; a）" style="text;html=1;align=center;verticalAlign=middle;resizable=0;points=[];autosize=1;strokeColor=none;fillColor=none;" vertex="1" parent="WIyWlLk6GJQsqaUBKTNV-1">
          <mxGeometry x="878.8434379905809" y="457.26611304188765" width="70" height="40" as="geometry" />
        </mxCell>
        <mxCell id="5p0RSowyXVtUORaD7XSm-39" value="b + c" style="whiteSpace=wrap;html=1;rounded=1;glass=0;strokeWidth=1;shadow=0;" vertex="1" parent="WIyWlLk6GJQsqaUBKTNV-1">
          <mxGeometry x="1303.31" y="669.2280701754386" width="140" height="90.42807017543859" as="geometry" />
        </mxCell>
        <mxCell id="5p0RSowyXVtUORaD7XSm-40" value="" style="edgeStyle=orthogonalEdgeStyle;rounded=0;orthogonalLoop=1;jettySize=auto;html=1;" edge="1" parent="WIyWlLk6GJQsqaUBKTNV-1" source="5p0RSowyXVtUORaD7XSm-36" target="5p0RSowyXVtUORaD7XSm-39">
          <mxGeometry relative="1" as="geometry" />
        </mxCell>
        <mxCell id="5p0RSowyXVtUORaD7XSm-41" style="edgeStyle=orthogonalEdgeStyle;rounded=0;orthogonalLoop=1;jettySize=auto;html=1;entryX=0.5;entryY=0;entryDx=0;entryDy=0;" edge="1" parent="WIyWlLk6GJQsqaUBKTNV-1" source="5p0RSowyXVtUORaD7XSm-42" target="5p0RSowyXVtUORaD7XSm-28">
          <mxGeometry relative="1" as="geometry" />
        </mxCell>
        <mxCell id="5p0RSowyXVtUORaD7XSm-42" value="" style="shape=umlActor;verticalLabelPosition=bottom;verticalAlign=top;html=1;outlineConnect=0;" vertex="1" parent="WIyWlLk6GJQsqaUBKTNV-1">
          <mxGeometry x="773.6772370486657" y="64.54545454545455" width="87.51899529042389" height="75.36125845985" as="geometry" />
        </mxCell>
        <mxCell id="5p0RSowyXVtUORaD7XSm-47" value="NO" style="edgeStyle=orthogonalEdgeStyle;rounded=0;orthogonalLoop=1;jettySize=auto;html=1;" edge="1" parent="WIyWlLk6GJQsqaUBKTNV-1" source="5p0RSowyXVtUORaD7XSm-43" target="5p0RSowyXVtUORaD7XSm-36">
          <mxGeometry relative="1" as="geometry" />
        </mxCell>
        <mxCell id="5p0RSowyXVtUORaD7XSm-43" value="a与b超过一个上报周期？" style="rhombus;whiteSpace=wrap;html=1;rounded=1;glass=0;strokeWidth=1;shadow=0;" vertex="1" parent="WIyWlLk6GJQsqaUBKTNV-1">
          <mxGeometry x="994.5833333333334" y="452.30175438596484" width="217.50000000000006" height="115.42456140350873" as="geometry" />
        </mxCell>
        <mxCell id="5p0RSowyXVtUORaD7XSm-44" value="" style="edgeStyle=orthogonalEdgeStyle;rounded=0;orthogonalLoop=1;jettySize=auto;html=1;" edge="1" parent="WIyWlLk6GJQsqaUBKTNV-1" source="5p0RSowyXVtUORaD7XSm-31" target="5p0RSowyXVtUORaD7XSm-43">
          <mxGeometry relative="1" as="geometry" />
        </mxCell>
        <mxCell id="5p0RSowyXVtUORaD7XSm-45" value="a" style="rounded=1;whiteSpace=wrap;html=1;glass=0;strokeWidth=1;shadow=0;" vertex="1" parent="WIyWlLk6GJQsqaUBKTNV-1">
          <mxGeometry x="1030.8333333333335" y="675.4456140350876" width="145.00000000000003" height="84.21052631578947" as="geometry" />
        </mxCell>
        <mxCell id="5p0RSowyXVtUORaD7XSm-46" value="YES" style="edgeStyle=orthogonalEdgeStyle;rounded=0;orthogonalLoop=1;jettySize=auto;html=1;" edge="1" parent="WIyWlLk6GJQsqaUBKTNV-1" source="5p0RSowyXVtUORaD7XSm-43" target="5p0RSowyXVtUORaD7XSm-45">
          <mxGeometry relative="1" as="geometry" />
        </mxCell>
        <mxCell id="5p0RSowyXVtUORaD7XSm-48" value="修改点:&amp;nbsp;&lt;br&gt;&lt;span style=&quot;white-space: pre;&quot;&gt;	&lt;/span&gt;如果原始数据与Limit数据相差超过1个上报周期，则认为该原始数据原则上不参与limit计算&lt;br&gt;&lt;br&gt;&lt;br&gt;&lt;br&gt;缺点:&lt;br&gt;&amp;nbsp; &amp;nbsp;&amp;nbsp;&lt;span style=&quot;white-space: pre;&quot;&gt;	&lt;/span&gt;由于性能等原因，limit与原始数据相差超过一个周期，返回结果无limit相关信息" style="text;html=1;strokeColor=none;fillColor=none;align=left;verticalAlign=middle;whiteSpace=wrap;rounded=0;" vertex="1" parent="WIyWlLk6GJQsqaUBKTNV-1">
          <mxGeometry x="643.66" y="820" width="540.36" height="82.63" as="geometry" />
        </mxCell>
      </root>
    </mxGraphModel>
  </diagram>
  <diagram id="Ehpm1yLx751oHKTHAvWa" name="第 2 页">
    <mxGraphModel dx="1247" dy="677" grid="1" gridSize="10" guides="1" tooltips="1" connect="1" arrows="1" fold="1" page="1" pageScale="1" pageWidth="827" pageHeight="1169" math="0" shadow="0">
      <root>
        <mxCell id="0" />
        <mxCell id="1" parent="0" />
        <mxCell id="Jcjwnh4mTmBA4wJbR3vL-1" value="" style="rounded=0;html=1;jettySize=auto;orthogonalLoop=1;fontSize=11;endArrow=block;endFill=0;endSize=8;strokeWidth=1;shadow=0;labelBackgroundColor=none;edgeStyle=orthogonalEdgeStyle;" edge="1" parent="1" source="Jcjwnh4mTmBA4wJbR3vL-2" target="Jcjwnh4mTmBA4wJbR3vL-5">
          <mxGeometry relative="1" as="geometry" />
        </mxCell>
        <mxCell id="Jcjwnh4mTmBA4wJbR3vL-2" value="Lamp doesn&#39;t work" style="rounded=1;whiteSpace=wrap;html=1;fontSize=12;glass=0;strokeWidth=1;shadow=0;" vertex="1" parent="1">
          <mxGeometry x="20" y="20" width="120" height="40" as="geometry" />
        </mxCell>
        <mxCell id="Jcjwnh4mTmBA4wJbR3vL-3" value="Yes" style="rounded=0;html=1;jettySize=auto;orthogonalLoop=1;fontSize=11;endArrow=block;endFill=0;endSize=8;strokeWidth=1;shadow=0;labelBackgroundColor=none;edgeStyle=orthogonalEdgeStyle;" edge="1" parent="1" source="Jcjwnh4mTmBA4wJbR3vL-5" target="Jcjwnh4mTmBA4wJbR3vL-9">
          <mxGeometry y="20" relative="1" as="geometry">
            <mxPoint as="offset" />
          </mxGeometry>
        </mxCell>
        <mxCell id="Jcjwnh4mTmBA4wJbR3vL-4" value="No" style="edgeStyle=orthogonalEdgeStyle;rounded=0;html=1;jettySize=auto;orthogonalLoop=1;fontSize=11;endArrow=block;endFill=0;endSize=8;strokeWidth=1;shadow=0;labelBackgroundColor=none;" edge="1" parent="1" source="Jcjwnh4mTmBA4wJbR3vL-5" target="Jcjwnh4mTmBA4wJbR3vL-6">
          <mxGeometry x="0.2" y="20" relative="1" as="geometry">
            <mxPoint as="offset" />
          </mxGeometry>
        </mxCell>
        <mxCell id="Jcjwnh4mTmBA4wJbR3vL-5" value="Lamp&lt;br&gt;plugged in?" style="rhombus;whiteSpace=wrap;html=1;shadow=0;fontFamily=Helvetica;fontSize=12;align=center;strokeWidth=1;spacing=6;spacingTop=-4;" vertex="1" parent="1">
          <mxGeometry x="30" y="110" width="100" height="80" as="geometry" />
        </mxCell>
        <mxCell id="Jcjwnh4mTmBA4wJbR3vL-6" value="Plug in lamp" style="rounded=1;whiteSpace=wrap;html=1;fontSize=12;glass=0;strokeWidth=1;shadow=0;" vertex="1" parent="1">
          <mxGeometry x="180" y="130" width="120" height="40" as="geometry" />
        </mxCell>
        <mxCell id="Jcjwnh4mTmBA4wJbR3vL-7" value="No" style="rounded=0;html=1;jettySize=auto;orthogonalLoop=1;fontSize=11;endArrow=block;endFill=0;endSize=8;strokeWidth=1;shadow=0;labelBackgroundColor=none;edgeStyle=orthogonalEdgeStyle;" edge="1" parent="1" source="Jcjwnh4mTmBA4wJbR3vL-9" target="Jcjwnh4mTmBA4wJbR3vL-10">
          <mxGeometry x="0.3333" y="20" relative="1" as="geometry">
            <mxPoint as="offset" />
          </mxGeometry>
        </mxCell>
        <mxCell id="Jcjwnh4mTmBA4wJbR3vL-8" value="Yes" style="edgeStyle=orthogonalEdgeStyle;rounded=0;html=1;jettySize=auto;orthogonalLoop=1;fontSize=11;endArrow=block;endFill=0;endSize=8;strokeWidth=1;shadow=0;labelBackgroundColor=none;verticalAlign=middle;fontStyle=0" edge="1" parent="1" source="Jcjwnh4mTmBA4wJbR3vL-9" target="Jcjwnh4mTmBA4wJbR3vL-11">
          <mxGeometry x="-0.2" y="50" relative="1" as="geometry">
            <mxPoint as="offset" />
          </mxGeometry>
        </mxCell>
        <mxCell id="CGkOBv5qmbpFjWJpFecY-1" value="" style="edgeStyle=orthogonalEdgeStyle;rounded=0;orthogonalLoop=1;jettySize=auto;html=1;" edge="1" parent="1" source="Jcjwnh4mTmBA4wJbR3vL-9" target="Jcjwnh4mTmBA4wJbR3vL-11">
          <mxGeometry relative="1" as="geometry" />
        </mxCell>
        <mxCell id="Jcjwnh4mTmBA4wJbR3vL-9" value="Bulb&lt;br&gt;burned out?" style="rhombus;whiteSpace=wrap;html=1;shadow=0;fontFamily=Helvetica;fontSize=12;align=center;strokeWidth=1;spacing=6;spacingTop=-4;" vertex="1" parent="1">
          <mxGeometry x="30" y="230" width="100" height="80" as="geometry" />
        </mxCell>
        <mxCell id="Jcjwnh4mTmBA4wJbR3vL-10" value="Repair Lamp" style="rounded=1;whiteSpace=wrap;html=1;fontSize=12;glass=0;strokeWidth=1;shadow=0;" vertex="1" parent="1">
          <mxGeometry x="20" y="370" width="120" height="40" as="geometry" />
        </mxCell>
        <mxCell id="Jcjwnh4mTmBA4wJbR3vL-11" value="Replace Bulb" style="rounded=1;whiteSpace=wrap;html=1;fontSize=12;glass=0;strokeWidth=1;shadow=0;" vertex="1" parent="1">
          <mxGeometry x="180" y="250" width="120" height="40" as="geometry" />
        </mxCell>
      </root>
    </mxGraphModel>
  </diagram>
</mxfile>
